<?xml version="1.0" standalone="no"?>
<!DOCTYPE svg PUBLIC "-//W3C//DTD SVG 20010904//EN"
 "http://www.w3.org/TR/2001/REC-SVG-20010904/DTD/svg10.dtd">
<svg version="1.0" xmlns="http://www.w3.org/2000/svg"
 width="700.000000pt" height="700.000000pt" viewBox="0 0 700.000000 700.000000"
 preserveAspectRatio="xMidYMid meet">
<metadata>
Created by potrace 1.11, written by Peter Selinger 2001-2013
</metadata>
<g transform="translate(0.000000,700.000000) scale(0.100000,-0.100000)"
fill="#000000" stroke="none">
<path d="M3225 6994 c-246 -25 -498 -70 -680 -123 -1007 -289 -1826 -1002
-2249 -1956 -102 -228 -176 -461 -226 -705 -56 -278 -64 -367 -64 -710 0 -343
8 -432 64 -710 224 -1101 978 -2034 2015 -2494 301 -134 618 -223 975 -273
179 -25 701 -25 880 0 734 103 1343 382 1890 863 556 490 951 1173 1100 1904
56 278 64 367 64 710 0 343 -8 432 -64 710 -224 1101 -978 2034 -2015 2494
-300 134 -622 224 -970 272 -114 15 -617 28 -720 18z m1602 -1017 c-3 -8 -102
-167 -221 -354 -119 -188 -216 -344 -216 -347 0 -3 177 -7 394 -8 l395 -3
-1026 -1620 c-564 -891 -1028 -1626 -1030 -1632 -4 -10 149 -13 728 -15 l733
-3 77 -132 78 -133 -899 0 -898 0 -136 -214 c-75 -117 -136 -216 -136 -220 0
-3 523 -7 1162 -8 l1161 -3 43 -73 c24 -40 60 -102 80 -137 l36 -65 -1492 0
c-1262 0 -1491 2 -1487 14 3 7 103 167 221 355 119 187 216 343 216 346 0 2
-178 6 -394 7 l-395 3 1024 1620 c564 891 1025 1623 1025 1627 0 5 -287 9
-637 10 l-637 3 -78 135 -78 135 810 5 810 5 135 214 c74 117 135 215 135 217
0 2 -483 4 -1074 4 l-1074 0 -76 133 c-42 73 -76 136 -76 140 0 4 630 7 1401
7 1158 0 1400 -2 1396 -13z"/>
<path d="M3263 3501 c-519 -819 -943 -1492 -943 -1495 0 -3 105 -6 233 -6
l234 0 941 1489 c518 819 942 1492 942 1495 0 3 -105 6 -232 6 l-233 0 -942
-1489z"/>
</g>
</svg>
